<?xml version="1.0" encoding="utf-8"?>
<!-- Generator: Adobe Illustrator 24.1.3, SVG Export Plug-In . SVG Version: 6.00 Build 0)  -->
<svg version="1.1" id="Layer_1" xmlns="http://www.w3.org/2000/svg" xmlns:xlink="http://www.w3.org/1999/xlink" x="0px" y="0px"
	 viewBox="0 0 960 960" style="enable-background:new 0 0 960 960;" xml:space="preserve">
<style type="text/css">
	.st0{fill:#FFFFFF;}
	.st1{fill:#FF0000;}
</style>
<path class="st0" d="M899.98,960H60.02C26.87,960,0,933.13,0,899.98V60.02C0,26.87,26.87,0,60.02,0h839.97
	C933.13,0,960,26.87,960,60.02v839.97C960,933.13,933.13,960,899.98,960z"/>
<g>
	<polygon class="st0" points="471.71,418.07 480.91,418.07 548.77,558.41 500.68,548.75 475.02,488.08 449.36,548.73 402.29,558.54 
			"/>
	<path class="st0" d="M196.38,606.93h-38.77v-1.73c-2.74,1.77-5.97,2.69-9.5,2.69c-3.42,0-6.55-0.87-9.23-2.55v1.58h-18.89v-0.43
		c-0.83,0.29-1.65,0.53-2.47,0.72c-1.76,0.42-3.58,0.63-5.39,0.63c-2.21,0-4.26-0.31-6.14-0.92H88.15l-2.84-3.67v3.67H65.87v-44.36
		h19.45v2.6l1.97-2.6h24.34L94.64,584l1.29,1.66c0.85-2.46,2.26-4.7,4.19-6.61c3.34-3.31,7.63-5.06,12.39-5.06
		c2.73,0,5.26,0.58,7.48,1.7v-11.87l18.89-2.56v15.21c2.68-1.67,5.81-2.53,9.23-2.53c3.53,0,6.76,0.92,9.5,2.69v-1.72h15.71
		c1.26-0.37,2.57-0.56,3.93-0.56c2.5,0,4.71,0.57,6.58,1.68c2.04-1.12,4.28-1.68,6.64-1.68c2.44,0,4.38,0.51,5.9,1.24v-0.68h11.94
		c0.67-0.21,1.35-0.38,2.01-0.5c1.01-0.19,2.08-0.29,3.17-0.29c4.53,0,8.51,1.69,11.52,4.89c0.02,0.03,0.05,0.05,0.07,0.08
		c0.1-0.11,0.21-0.22,0.32-0.32c3.19-3.16,7.39-4.82,12.13-4.82c3.51,0,6.73,0.91,9.46,2.66v-12.75l18.57-2.63v13.69h19.38v-12.34
		h14.54c7.48,0,13.57,1.93,18.09,5.75c0.18,0.15,0.35,0.3,0.52,0.45c0.45-0.88,1.05-1.7,1.79-2.43c1.86-1.86,4.25-2.85,6.9-2.85
		c2.67,0,5.06,0.98,6.91,2.84c1.85,1.85,2.83,4.24,2.83,6.91c0,0.71-0.07,1.39-0.21,2.06c1.92-0.89,4.11-1.35,6.54-1.35
		c1.58,0,3.23,0.21,4.91,0.64c0.5,0.13,1.02,0.27,1.55,0.44v-11.17l18.57-2.63v13.69h36.99v0.4c1.93-0.91,4.13-1.36,6.58-1.36
		c1.58,0,3.23,0.21,4.91,0.64c0.38,0.1,0.77,0.2,1.17,0.32c-0.09-0.55-0.14-1.1-0.14-1.68c0-2.64,0.98-5.02,2.84-6.89
		c1.88-1.87,4.26-2.86,6.91-2.86c2.68,0,5.07,0.98,6.92,2.85c1.84,1.84,2.83,4.23,2.83,6.9c0,0.81-0.09,1.6-0.27,2.35v31.35h-18.88
		v-0.22c-1.87,0.79-3.99,1.18-6.33,1.18c-1.73,0-3.45-0.22-5.11-0.65c-0.92-0.24-1.85-0.55-2.76-0.93l-16.92,2.52v-1.01
		c-0.49,0.05-0.99,0.07-1.5,0.07c-2.09,0-3.81-0.39-5.22-0.97h-30.58v-0.29c-1.91,0.84-4.09,1.26-6.51,1.26
		c-1.73,0-3.45-0.22-5.11-0.65c-0.48-0.12-0.97-0.27-1.45-0.43v0.11h-18.89v-5.7c-1.07,0.9-2.25,1.73-3.54,2.46
		c-2.01,1.17-4.23,2.02-6.58,2.53c-2.18,0.47-4.73,0.71-7.77,0.71h-52.49v-1.7c-2.73,1.75-5.94,2.66-9.46,2.66
		c-4.73,0-8.92-1.67-12.12-4.84c-0.13-0.13-0.26-0.26-0.38-0.39c-0.12,0.13-0.25,0.26-0.38,0.39c-2.55,2.55-5.81,4.12-9.53,4.62v6.9
		l-18.75,3.2V606.93z M284.95,604.61v-28.87l-11.26,13.86L284.95,604.61z M304.4,587.11c0.29-0.25,0.81-0.73,0.81-2.36
		c0-1.6-0.51-2.11-0.81-2.38V587.11z M650.38,606.55l-9.54,2.62l-0.45-1.37c-0.53,0.06-1.06,0.09-1.6,0.09
		c-3.21,0-6.14-0.99-8.62-2.88v3.15h-8.87l-12.18-11.37v10.13h-18.93v-45.42h8.95l12.1,11.34v-10.28h18.93v14.68
		c2.8-2.17,6.18-3.3,9.93-3.3c1.19,0,2.41,0.16,3.64,0.47c0.69,0.18,1.4,0.4,2.14,0.68l4.51-0.17v-0.01h0.37l5.99-0.22v0.22h5.57
		c0.67-0.21,1.35-0.38,2.02-0.5c1-0.19,2.08-0.29,3.17-0.29c4.54,0,8.52,1.69,11.52,4.89c0.02,0.03,0.05,0.05,0.07,0.08
		c0.1-0.11,0.21-0.22,0.32-0.32c3.19-3.16,7.39-4.82,12.13-4.82c4.57,0,8.63,1.54,11.78,4.46c0.36-0.41,0.75-0.8,1.18-1.17
		c2.52-2.19,5.73-3.3,9.55-3.3c1.58,0,3.23,0.21,4.91,0.64c1.52,0.38,3.19,0.96,4.97,1.73l2.01,0.86c2.89-2.12,6.39-3.23,10.26-3.23
		c4.76,0,8.96,1.67,12.16,4.82c3.22,3.17,4.92,7.37,4.92,12.15c0,4.77-1.7,8.97-4.91,12.15c-3.19,3.16-7.4,4.84-12.16,4.84
		c-4.42,0-8.36-1.46-11.46-4.22c-0.26,0.28-0.54,0.55-0.84,0.81c-2.56,2.26-5.89,3.41-9.89,3.41c-1.73,0-3.45-0.22-5.11-0.65
		c-1.63-0.42-3.28-1.07-4.89-1.94l-1.77-0.95c-2.97,2.32-6.63,3.54-10.69,3.54c-4.73,0-8.92-1.67-12.12-4.84
		c-0.13-0.13-0.26-0.26-0.38-0.39c-0.12,0.13-0.25,0.26-0.38,0.39c-2.55,2.55-5.81,4.12-9.53,4.62v6.9l-18.75,3.2V606.55z
		 M844.45,607.8c-0.53,0.06-1.06,0.09-1.6,0.09c-2.28,0-4.41-0.49-6.34-1.45l-15.24,1.03l-1.39-0.66c-0.89-0.43-1.7-0.96-2.41-1.58
		l-14.35,3.94l-0.45-1.37c-0.53,0.06-1.06,0.09-1.6,0.09c-4.34,0-8.16-1.8-11.05-5.19c-0.1-0.12-0.2-0.23-0.29-0.35
		c-0.45,0.4-0.94,0.79-1.46,1.14c-3.35,2.31-7.8,3.43-13.63,3.43h-14.71v-44.36h15.95c5.1,0,9.03,1.04,12.02,3.17
		c2.44,1.74,5.36,5.05,5.38,10.9c2.63-1.78,5.72-2.7,9.1-2.7c1.19,0,2.41,0.16,3.65,0.47c0.69,0.18,1.4,0.4,2.14,0.68l2.7-0.1v-0.08
		h2.17l0.77-0.03v-5.31l18.96-2.54v7.88h4.79v0.36c2.02-0.88,4.24-1.33,6.6-1.33c1.19,0,2.41,0.16,3.65,0.47
		c0.69,0.18,1.4,0.4,2.13,0.68l4.51-0.17v-11.07l18.57-2.63v13.69h20.06l-11.93,14.68l13,17.34h-39.69v-0.38l-9.55,2.62
		L844.45,607.8z M459.93,608.08c-4.84,0-8.96-1.41-12.24-4.18c-3.52-2.98-5.38-6.94-5.38-11.46c0-3.19,0.87-6.11,2.59-8.67
		c0.62-0.92,1.36-1.82,2.23-2.67c-0.72-1.85-1.09-3.75-1.09-5.66c0-3.98,1.53-7.48,4.43-10.13c2.74-2.51,6.32-3.85,10.33-3.85
		c4.14,0,7.66,1.23,10.47,3.66c3.02,2.61,4.61,6.08,4.61,10.05c0,1.75-0.29,3.42-0.88,5l10.46,2.93l-1.26,5.47
		c-0.49,2.14-1.21,4.13-2.12,5.92c-0.13,0.26-0.27,0.52-0.41,0.77l3.84,4.58l18.92-38.28h7.84l8.17,16.91v-14.6l18.57-2.63v13.69
		h12.52c1.7-0.64,3.58-0.97,5.64-0.97c1.58,0,3.23,0.21,4.91,0.64c0.38,0.1,0.78,0.21,1.18,0.33c-0.09-0.55-0.14-1.11-0.14-1.68
		c0-2.65,0.99-5.04,2.85-6.9c1.85-1.86,4.24-2.84,6.9-2.84c2.66,0,5.05,0.98,6.91,2.83c1.85,1.85,2.84,4.24,2.84,6.91
		c0,0.8-0.09,1.58-0.27,2.33v31.37h-18.89v-0.21c-1.87,0.78-3.98,1.18-6.33,1.18c-1.73,0-3.45-0.22-5.11-0.65
		c-0.37-0.09-0.73-0.2-1.1-0.32h-38.07l-2.07-4.74h-5.55l-2.11,4.74h-35.44l-0.17-0.18c-0.52,0.18-1.03,0.35-1.54,0.49
		C463.99,607.79,461.96,608.08,459.93,608.08z M700.76,556.2V455.44h-38.97v-37.37h118.77v37.37h-38.8V556.2H700.76z M300,556.2
		V418.07h38.42c24.23,0,43.62,6.17,57.62,18.35c14.24,12.39,21.46,29.45,21.46,50.71c0,12.71-2.84,24.19-8.45,34.13
		c-5.62,9.96-13.93,18.24-24.7,24.61c-6.12,3.66-12.89,6.34-20.1,7.95c-7.01,1.57-15.71,2.36-25.84,2.36H300z M341.21,517.34
		c11.25,0,20.04-2.73,26.11-8.11c5.95-5.27,8.84-12.5,8.84-22.09c0-9.61-2.9-16.87-8.86-22.2c-6.07-5.43-14.85-8.18-26.09-8.18
		h-0.54v60.58H341.21z M620.8,556.2v-64.47l-43.14,64.47h-35.98V418.07h38.72v64.34l43.14-64.35h35.98V556.2H620.8z M151.87,556.2
		l-43.03-55.75v55.75H65.87V349.44l42.98-7.21v116.36l29.32-37.99l1.63-2.45l3.19-0.07h48.49l-47.41,61.44l57.45,74.47V418.07h87.25
		v37.8h-49.45v13.25h25.91v35.48h-25.91v13.25h50.11v38.33L151.87,556.2z M847.88,556.2l-6.35-15.01c-7.09,2-14.42,3.01-21.87,3.01
		c-7.84,0-15.53-1.12-22.93-3.32l-6.48,15.32h-42.76l68.27-138.12h9.2l44.76,92.56l5.38,11.11l0,0l16.65,34.44H847.88z
		 M810.42,508.52c3.02,0.62,6.11,0.93,9.25,0.93c2.74,0,5.46-0.24,8.14-0.73l-8.73-20.65L810.42,508.52z"/>
	<path class="st1" d="M477.23,423.95h-1.86l-62.46,126.37l32.24-6.72l29.87-70.61l29.87,70.61l33.44,6.72L477.23,423.95z"/>
	<path d="M87.17,583.96l13.27,17.09h-9.4l-11.6-15.02v15.02h-7.69v-32.61h7.69v14.19l10.77-14.19h9.26L87.17,583.96z M119.34,582.33
		c1.78,1.64,2.66,3.77,2.66,6.38c0,0.4-0.03,1.05-0.09,1.93l-0.02,0.13l-0.63,0.92l-13.83,0.38c0.1,1.36,0.67,2.47,1.71,3.32
		c1.03,0.85,2.34,1.27,3.91,1.27c1.11,0,2.34-0.24,3.7-0.72c1.36-0.48,2.78-1.19,4.28-2.14l-0.79,6.23
		c-1.38,0.66-2.74,1.15-4.07,1.46c-1.33,0.32-2.68,0.47-4.05,0.47c-3.37,0-6.09-0.97-8.16-2.91c-2.07-1.94-3.1-4.47-3.1-7.59
		c0-3.25,1.13-6,3.4-8.24c2.26-2.24,5.01-3.36,8.25-3.36C115.28,579.87,117.56,580.69,119.34,582.33z M116.38,588.44
		c0-1.07-0.37-1.94-1.13-2.62c-0.75-0.68-1.69-1.02-2.83-1.02c-1.28,0-2.34,0.37-3.19,1.11c-0.85,0.74-1.4,1.78-1.64,3.11l8.79-0.27
		V588.44z M125.87,601.05H133V568l-7.13,0.97V601.05z M156.14,582.95c2.11,2.08,3.17,4.74,3.17,7.96c0,3.22-1.06,5.88-3.17,7.97
		c-2.11,2.09-4.79,3.14-8.03,3.14c-3.21,0-5.87-1.04-7.98-3.14c-2.11-2.09-3.17-4.75-3.17-7.97c0-3.22,1.05-5.88,3.16-7.96
		c2.11-2.08,4.77-3.12,7.99-3.12C151.35,579.82,154.02,580.87,156.14,582.95z M152.06,590.91c0-1.69-0.37-3.08-1.11-4.15
		c-0.74-1.07-1.69-1.61-2.85-1.61c-1.15,0-2.1,0.53-2.84,1.6c-0.74,1.07-1.11,2.45-1.11,4.16c0,1.72,0.37,3.11,1.11,4.17
		c0.74,1.06,1.69,1.58,2.84,1.58c1.15,0,2.1-0.53,2.85-1.6C151.69,594,152.06,592.62,152.06,590.91z M190.47,580.23
		c-1.38,0-2.66,0.32-3.83,0.97c-1.18,0.64-2.26,1.61-3.25,2.9c-0.67-1.35-1.5-2.33-2.46-2.95c-0.97-0.61-2.19-0.92-3.68-0.92
		c-1.35,0-2.6,0.32-3.74,0.95c-1.15,0.63-2.31,1.63-3.47,3.01v-3.4h-6.54v20.26h7.04v-9.98c0-1.54,0.33-2.74,0.98-3.58
		c0.65-0.84,1.56-1.26,2.71-1.26c0.81,0,1.44,0.28,1.88,0.83c0.44,0.56,0.66,1.35,0.66,2.38v11.6h7.04v-9.98
		c0-1.54,0.32-2.74,0.97-3.58c0.64-0.84,1.55-1.26,2.72-1.26c0.81,0,1.44,0.28,1.88,0.83c0.44,0.56,0.66,1.35,0.66,2.38v11.6h7.04
		v-13.04c0-2.65-0.54-4.61-1.61-5.88C194.38,580.86,192.72,580.23,190.47,580.23z M220.73,583.04c1.9,2.02,2.85,4.63,2.85,7.83
		c0,3.31-1.02,5.99-3.07,8.04c-2.05,2.05-4.72,3.07-8.02,3.07c-0.43,0-0.9-0.03-1.39-0.08c-0.5-0.05-1.11-0.13-1.84-0.24v7.96
		l-6.99,1.19v-30.02h7.04c0.7-0.27,1.4-0.47,2.09-0.59c0.69-0.13,1.39-0.19,2.11-0.19C216.42,580,218.83,581.02,220.73,583.04z
		 M216.35,590.82c0-1.6-0.42-2.93-1.25-3.98c-0.83-1.05-1.86-1.57-3.09-1.57c-0.37,0-0.77,0.04-1.19,0.12
		c-0.42,0.08-0.93,0.22-1.53,0.42v10.59c0.49,0.14,0.92,0.23,1.28,0.29c0.36,0.06,0.69,0.09,0.99,0.09c1.36,0,2.5-0.56,3.42-1.69
		C215.9,593.97,216.35,592.54,216.35,590.82z M245.56,582.95c2.11,2.08,3.17,4.74,3.17,7.96c0,3.22-1.06,5.88-3.17,7.97
		c-2.11,2.09-4.79,3.14-8.03,3.14c-3.21,0-5.87-1.04-7.98-3.14c-2.11-2.09-3.17-4.75-3.17-7.97c0-3.22,1.05-5.88,3.16-7.96
		c2.11-2.08,4.77-3.12,7.99-3.12C240.77,579.82,243.45,580.87,245.56,582.95z M241.49,590.91c0-1.69-0.37-3.08-1.11-4.15
		c-0.74-1.07-1.69-1.61-2.85-1.61c-1.15,0-2.1,0.53-2.84,1.6c-0.74,1.07-1.11,2.45-1.11,4.16c0,1.72,0.37,3.11,1.11,4.17
		c0.74,1.06,1.69,1.58,2.84,1.58c1.15,0,2.1-0.53,2.85-1.6C241.12,594,241.49,592.62,241.49,590.91z M273.27,580.79h-7.38
		l-6.21,8.34V568l-6.81,0.97v32.09h6.81v-10.77l7.47,10.77h7.78l-8.7-11.6L273.27,580.79z M318.96,584.75
		c0,3.03-0.68,5.72-2.05,8.06c-1.37,2.34-3.37,4.27-6,5.79c-1.5,0.87-3.13,1.5-4.89,1.88c-1.76,0.38-3.94,0.57-6.53,0.57h-8.66
		v-32.61h8.66c6.09,0,10.85,1.45,14.3,4.36C317.23,575.72,318.96,579.7,318.96,584.75z M311.09,584.75c0-2.91-0.96-5.19-2.88-6.86
		c-1.92-1.66-4.58-2.5-7.98-2.5h-1.71v18.66h1.71c3.4,0,6.06-0.83,7.98-2.47C310.13,589.94,311.09,587.66,311.09,584.75z
		 M326.78,569.37c-1.08,0-1.99,0.37-2.74,1.12c-0.75,0.75-1.13,1.66-1.13,2.74c0,1.07,0.38,1.98,1.15,2.76
		c0.76,0.77,1.67,1.16,2.72,1.16c1.08,0,1.99-0.38,2.74-1.15c0.75-0.77,1.12-1.69,1.12-2.77c0-1.09-0.37-2.01-1.11-2.75
		C328.8,569.74,327.88,569.37,326.78,569.37z M323.25,601.05h7.13v-21.23l-7.13,0.97V601.05z M345.72,588.57l-2.43-0.88
		c-0.85-0.28-1.41-0.55-1.65-0.8c-0.25-0.25-0.37-0.58-0.37-1c0-0.5,0.22-0.9,0.65-1.23c0.43-0.32,1-0.48,1.69-0.48
		c0.93,0,1.93,0.22,2.99,0.65c1.06,0.44,2.05,1.04,2.95,1.8l0.88-4.93c-1.5-0.65-2.86-1.12-4.08-1.43
		c-1.22-0.31-2.38-0.46-3.47-0.46c-2.37,0-4.26,0.62-5.69,1.85c-1.42,1.24-2.14,2.88-2.14,4.91c0,1.44,0.44,2.69,1.33,3.74
		c0.88,1.06,2.18,1.88,3.89,2.46l2.61,0.92c0.76,0.27,1.3,0.55,1.62,0.85c0.31,0.3,0.47,0.68,0.47,1.13c0,0.53-0.22,0.95-0.67,1.27
		c-0.45,0.32-1.04,0.48-1.78,0.48c-0.84,0-1.75-0.2-2.74-0.6c-0.99-0.4-2.38-1.16-4.16-2.3v5.58c1.2,0.65,2.39,1.12,3.59,1.43
		c1.19,0.31,2.4,0.46,3.63,0.46c2.53,0,4.53-0.65,6-1.94c1.47-1.3,2.2-3.06,2.2-5.3c0-1.54-0.41-2.79-1.23-3.76
		C348.98,590.06,347.62,589.25,345.72,588.57z M375.6,580.79h-7.38l-6.21,8.34V568l-6.81,0.97v32.09h6.81v-10.77l7.47,10.77h7.78
		l-8.7-11.6L375.6,580.79z M392.02,591.2c0,1.56-0.33,2.76-0.99,3.59c-0.66,0.83-1.6,1.25-2.83,1.25c-0.85,0-1.5-0.27-1.93-0.82
		c-0.44-0.55-0.65-1.35-0.65-2.42v-12.01h-7.04v13.99c0,2.37,0.56,4.17,1.68,5.4c1.12,1.23,2.75,1.84,4.89,1.84
		c1.43,0,2.74-0.32,3.94-0.97c1.2-0.64,2.35-1.64,3.44-2.99v3.96l6.5-0.97v-20.26h-6.99V591.2z M414.32,588.57l-2.43-0.88
		c-0.85-0.28-1.41-0.55-1.65-0.8c-0.25-0.25-0.37-0.58-0.37-1c0-0.5,0.22-0.9,0.65-1.23c0.43-0.32,1-0.48,1.69-0.48
		c0.93,0,1.93,0.22,2.99,0.65c1.06,0.44,2.05,1.04,2.95,1.8l0.88-4.93c-1.5-0.65-2.86-1.12-4.08-1.43
		c-1.22-0.31-2.38-0.46-3.47-0.46c-2.37,0-4.26,0.62-5.69,1.85c-1.42,1.24-2.14,2.88-2.14,4.91c0,1.44,0.44,2.69,1.33,3.74
		c0.88,1.06,2.18,1.88,3.89,2.46l2.61,0.92c0.76,0.27,1.3,0.55,1.62,0.85c0.31,0.3,0.47,0.68,0.47,1.13c0,0.53-0.22,0.95-0.67,1.27
		c-0.45,0.32-1.04,0.48-1.78,0.48c-0.84,0-1.75-0.2-2.74-0.6c-0.99-0.4-2.38-1.16-4.16-2.3v5.58c1.2,0.65,2.39,1.12,3.59,1.43
		c1.19,0.31,2.4,0.46,3.63,0.46c2.53,0,4.53-0.65,6-1.94c1.47-1.3,2.2-3.06,2.2-5.3c0-1.54-0.41-2.79-1.23-3.76
		C417.59,590.06,416.23,589.25,414.32,588.57z M423.64,601.05h7.12v-21.23l-7.12,0.97V601.05z M427.16,569.37
		c-1.08,0-1.99,0.37-2.74,1.12c-0.75,0.75-1.13,1.66-1.13,2.74c0,1.07,0.38,1.98,1.15,2.76c0.77,0.77,1.67,1.16,2.72,1.16
		c1.08,0,1.99-0.38,2.74-1.15c0.75-0.77,1.13-1.69,1.13-2.77c0-1.09-0.37-2.01-1.12-2.75C429.18,569.74,428.26,569.37,427.16,569.37
		z M474.25,595.56l4.61,5.49h-8.66l-1.3-1.37c-1.56,0.86-3.07,1.49-4.53,1.9c-1.46,0.41-2.94,0.62-4.44,0.62
		c-3.43,0-6.25-0.93-8.44-2.79c-2.19-1.86-3.29-4.18-3.29-6.97c0-2.01,0.53-3.81,1.6-5.4c1.07-1.59,2.74-3.07,5.04-4.45
		c-0.98-1.17-1.7-2.35-2.18-3.55c-0.48-1.2-0.72-2.4-0.72-3.6c0-2.32,0.84-4.25,2.52-5.79c1.68-1.54,3.8-2.31,6.36-2.31
		c2.7,0,4.9,0.74,6.62,2.23c1.72,1.48,2.58,3.35,2.58,5.6c0,1.68-0.44,3.2-1.33,4.57c-0.89,1.36-2.29,2.7-4.23,4l5.93,7.04
		c0.39-0.43,0.75-0.98,1.09-1.65c0.34-0.67,0.8-1.82,1.38-3.45l5.62,1.57c-0.39,1.68-0.93,3.2-1.63,4.58
		C476.15,593.19,475.28,594.44,474.25,595.56z M458.26,575.03c0,0.62,0.2,1.28,0.61,2c0.41,0.72,0.99,1.46,1.75,2.23
		c1.12-0.62,1.99-1.29,2.58-2.02c0.6-0.73,0.9-1.48,0.9-2.25c0-0.78-0.27-1.43-0.8-1.95c-0.53-0.52-1.2-0.77-2.01-0.77
		c-0.9,0-1.63,0.26-2.19,0.77C458.54,573.56,458.26,574.22,458.26,575.03z M465.03,594.89l-6.25-7.65c-1.16,0.54-2.02,1.2-2.6,1.98
		c-0.58,0.78-0.87,1.66-0.87,2.65c0,1.25,0.46,2.26,1.38,3.04c0.92,0.78,2.12,1.17,3.59,1.17c0.69,0,1.42-0.1,2.18-0.29
		C463.23,595.6,464.09,595.29,465.03,594.89z M508.59,567.43l16.26,33.62h-8.14l-2.07-4.75h-13.22l-2.11,4.75h-7.83l16.61-33.62
		H508.59z M512.23,590.68L508,580.47l-4.34,10.21H512.23z M546.73,580.79h-7.38l-6.2,8.34V568l-6.82,0.97v32.09h6.82v-10.77
		l7.46,10.77h7.78l-8.7-11.6L546.73,580.79z M560.03,588.57l-2.43-0.88c-0.86-0.28-1.41-0.55-1.66-0.8c-0.24-0.25-0.37-0.58-0.37-1
		c0-0.5,0.22-0.9,0.65-1.23c0.43-0.32,1-0.48,1.69-0.48c0.93,0,1.93,0.22,2.99,0.65c1.07,0.44,2.05,1.04,2.95,1.8l0.88-4.93
		c-1.5-0.65-2.86-1.12-4.08-1.43c-1.22-0.31-2.38-0.46-3.47-0.46c-2.37,0-4.27,0.62-5.69,1.85c-1.42,1.24-2.14,2.88-2.14,4.91
		c0,1.44,0.44,2.69,1.33,3.74c0.89,1.06,2.18,1.88,3.89,2.46l2.61,0.92c0.77,0.27,1.3,0.55,1.62,0.85c0.31,0.3,0.47,0.68,0.47,1.13
		c0,0.53-0.23,0.95-0.68,1.27c-0.45,0.32-1.04,0.48-1.78,0.48c-0.84,0-1.75-0.2-2.74-0.6c-0.99-0.4-2.37-1.16-4.16-2.3v5.58
		c1.2,0.65,2.39,1.12,3.59,1.43c1.19,0.31,2.4,0.46,3.63,0.46c2.54,0,4.54-0.65,6-1.94c1.47-1.3,2.2-3.06,2.2-5.3
		c0-1.54-0.41-2.79-1.23-3.76C563.3,590.06,561.94,589.25,560.03,588.57z M572.88,569.37c-1.08,0-2,0.37-2.74,1.12
		c-0.75,0.75-1.13,1.66-1.13,2.74c0,1.07,0.38,1.98,1.15,2.76c0.76,0.77,1.67,1.16,2.72,1.16c1.08,0,1.99-0.38,2.74-1.15
		c0.75-0.77,1.13-1.69,1.13-2.77c0-1.09-0.37-2.01-1.11-2.75C574.89,569.74,573.97,569.37,572.88,569.37z M569.34,601.05h7.13
		v-21.23l-7.13,0.97V601.05z M617.1,586.41l-20.3-19.02h-0.74v33.66h7.18v-17.79l20.37,19.02h0.67v-33.84h-7.18V586.41z
		 M650.95,597.45c0.06,1.08,0.15,2,0.27,2.76l-6.54,1.8l-0.63-1.93c-0.89,0.66-1.75,1.15-2.6,1.46c-0.85,0.31-1.74,0.47-2.67,0.47
		c-2.61,0-4.8-1.04-6.58-3.12c-1.78-2.08-2.67-4.68-2.67-7.78c0-3.27,1-5.96,2.99-8.09c2-2.13,4.51-3.19,7.56-3.19
		c0.71,0,1.44,0.1,2.2,0.29c0.76,0.2,1.61,0.5,2.54,0.9l6.03-0.23v12.66C650.86,595.04,650.89,596.37,650.95,597.45z M643.8,585.94
		c-0.42-0.24-0.82-0.41-1.2-0.52c-0.38-0.1-0.76-0.16-1.13-0.16c-1.33,0-2.46,0.56-3.37,1.67c-0.92,1.12-1.37,2.52-1.37,4.22
		c0,1.59,0.4,2.91,1.2,3.97c0.8,1.06,1.78,1.59,2.94,1.59c0.46,0,0.94-0.12,1.42-0.37c0.49-0.25,1-0.63,1.52-1.14V585.94z
		 M674.73,583.04c1.9,2.02,2.85,4.63,2.85,7.83c0,3.31-1.02,5.99-3.07,8.04c-2.05,2.05-4.72,3.07-8.01,3.07
		c-0.44,0-0.9-0.03-1.4-0.08c-0.49-0.05-1.11-0.13-1.84-0.24v7.96l-7,1.19v-30.02h7.04c0.71-0.27,1.4-0.47,2.09-0.59
		c0.69-0.13,1.39-0.19,2.11-0.19C670.42,580,672.83,581.02,674.73,583.04z M670.35,590.82c0-1.6-0.41-2.93-1.24-3.98
		c-0.83-1.05-1.86-1.57-3.09-1.57c-0.37,0-0.77,0.04-1.19,0.12c-0.42,0.08-0.93,0.22-1.53,0.42v10.59c0.5,0.14,0.92,0.23,1.28,0.29
		c0.36,0.06,0.69,0.09,0.99,0.09c1.36,0,2.5-0.56,3.42-1.69C669.9,593.97,670.35,592.54,670.35,590.82z M699.56,582.95
		c2.12,2.08,3.17,4.74,3.17,7.96c0,3.22-1.06,5.88-3.17,7.97c-2.11,2.09-4.79,3.14-8.02,3.14c-3.21,0-5.87-1.04-7.98-3.14
		c-2.12-2.09-3.17-4.75-3.17-7.97c0-3.22,1.05-5.88,3.16-7.96c2.11-2.08,4.77-3.12,8-3.12
		C694.78,579.82,697.45,580.87,699.56,582.95z M695.49,590.91c0-1.69-0.37-3.08-1.12-4.15c-0.74-1.07-1.69-1.61-2.84-1.61
		c-1.16,0-2.1,0.53-2.85,1.6c-0.74,1.07-1.12,2.45-1.12,4.16c0,1.72,0.37,3.11,1.12,4.17c0.74,1.06,1.69,1.58,2.85,1.58
		c1.15,0,2.1-0.53,2.84-1.6C695.12,594,695.49,592.62,695.49,590.91z M716.9,588.57l-2.43-0.88c-0.86-0.28-1.41-0.55-1.66-0.8
		c-0.24-0.25-0.37-0.58-0.37-1c0-0.5,0.22-0.9,0.65-1.23c0.43-0.32,1-0.48,1.69-0.48c0.93,0,1.93,0.22,2.99,0.65
		c1.07,0.44,2.05,1.04,2.95,1.8l0.88-4.93c-1.5-0.65-2.86-1.12-4.08-1.43c-1.22-0.31-2.38-0.46-3.47-0.46
		c-2.37,0-4.27,0.62-5.69,1.85c-1.42,1.24-2.14,2.88-2.14,4.91c0,1.44,0.44,2.69,1.33,3.74c0.89,1.06,2.18,1.88,3.89,2.46l2.61,0.92
		c0.77,0.27,1.31,0.55,1.62,0.85c0.31,0.3,0.48,0.68,0.48,1.13c0,0.53-0.23,0.95-0.68,1.27c-0.45,0.32-1.04,0.48-1.78,0.48
		c-0.84,0-1.75-0.2-2.74-0.6c-0.99-0.4-2.37-1.16-4.16-2.3v5.58c1.2,0.65,2.39,1.12,3.59,1.43c1.19,0.31,2.4,0.46,3.63,0.46
		c2.54,0,4.54-0.65,6-1.94c1.47-1.3,2.2-3.06,2.2-5.3c0-1.54-0.41-2.79-1.23-3.76C720.17,590.06,718.81,589.25,716.9,588.57z
		 M744.22,582.95c2.11,2.08,3.17,4.74,3.17,7.96c0,3.22-1.06,5.88-3.17,7.97s-4.79,3.14-8.03,3.14c-3.21,0-5.87-1.04-7.98-3.14
		c-2.11-2.09-3.17-4.75-3.17-7.97c0-3.22,1.06-5.88,3.16-7.96c2.1-2.08,4.77-3.12,7.99-3.12
		C739.43,579.82,742.11,580.87,744.22,582.95z M740.15,590.91c0-1.69-0.37-3.08-1.11-4.15c-0.74-1.07-1.69-1.61-2.85-1.61
		c-1.15,0-2.1,0.53-2.85,1.6c-0.74,1.07-1.11,2.45-1.11,4.16c0,1.72,0.37,3.11,1.11,4.17c0.74,1.06,1.69,1.58,2.85,1.58
		c1.15,0,2.1-0.53,2.85-1.6C739.78,594,740.15,592.62,740.15,590.91z M786.72,586.42c1.12,1.4,1.68,3.11,1.68,5.14
		c0,3.13-1.16,5.5-3.47,7.09c-2.31,1.6-5.75,2.4-10.29,2.4h-8.84v-32.61h10.07c3.8,0,6.66,0.69,8.6,2.08
		c1.94,1.39,2.91,3.44,2.91,6.17c0,1.66-0.44,3.08-1.33,4.24c-0.89,1.16-2.22,2.07-4,2.71C784.04,584.1,785.6,585.02,786.72,586.42z
		 M772.89,581.33h2.58c1.53,0,2.73-0.33,3.59-1c0.86-0.67,1.3-1.61,1.3-2.82c0-1.21-0.41-2.11-1.23-2.67
		c-0.82-0.57-2.09-0.86-3.84-0.86h-2.4V581.33z M781.14,590.86c0-1.31-0.43-2.31-1.31-3.03c-0.87-0.71-2.1-1.07-3.71-1.07h-3.24
		v8.39h3.24c1.56,0,2.79-0.38,3.68-1.15C780.7,593.25,781.14,592.2,781.14,590.86z M813.23,597.45c0.06,1.08,0.15,2,0.27,2.76
		l-6.54,1.8l-0.63-1.93c-0.89,0.66-1.75,1.15-2.6,1.46c-0.85,0.31-1.74,0.47-2.67,0.47c-2.61,0-4.8-1.04-6.58-3.12
		c-1.78-2.08-2.67-4.68-2.67-7.78c0-3.27,1-5.96,2.99-8.09c2-2.13,4.51-3.19,7.56-3.19c0.71,0,1.44,0.1,2.2,0.29
		c0.76,0.2,1.61,0.5,2.54,0.9l6.03-0.23v12.66C813.15,595.04,813.17,596.37,813.23,597.45z M806.08,585.94
		c-0.42-0.24-0.82-0.41-1.2-0.52c-0.38-0.1-0.76-0.16-1.13-0.16c-1.33,0-2.46,0.56-3.37,1.67c-0.92,1.12-1.37,2.52-1.37,4.22
		c0,1.59,0.4,2.91,1.2,3.97c0.8,1.06,1.78,1.59,2.94,1.59c0.46,0,0.94-0.12,1.42-0.37c0.49-0.25,1-0.63,1.52-1.14V585.94z
		 M826.88,573.75l-7.2,0.97v6.07h-2.95v5.33h2.95v8.12c0,2.46,0.2,4.16,0.61,5.12c0.41,0.95,1.11,1.67,2.11,2.15l8.01-0.54
		c-1.36-0.69-2.29-1.44-2.79-2.26c-0.5-0.82-0.74-2.14-0.74-3.97v-8.61h4.79v-5.33h-4.79V573.75z M855.01,597.45
		c0.06,1.08,0.15,2,0.27,2.76l-6.54,1.8l-0.63-1.93c-0.89,0.66-1.75,1.15-2.6,1.46c-0.85,0.31-1.74,0.47-2.67,0.47
		c-2.61,0-4.8-1.04-6.58-3.12c-1.78-2.08-2.67-4.68-2.67-7.78c0-3.27,1-5.96,2.99-8.09c2-2.13,4.51-3.19,7.56-3.19
		c0.71,0,1.44,0.1,2.2,0.29c0.76,0.2,1.61,0.5,2.54,0.9l6.03-0.23v12.66C854.93,595.04,854.95,596.37,855.01,597.45z M847.86,585.94
		c-0.42-0.24-0.82-0.41-1.2-0.52c-0.38-0.1-0.76-0.16-1.13-0.16c-1.33,0-2.46,0.56-3.37,1.67c-0.92,1.12-1.37,2.52-1.37,4.22
		c0,1.59,0.4,2.91,1.2,3.97c0.8,1.06,1.78,1.59,2.94,1.59c0.46,0,0.94-0.12,1.42-0.37c0.49-0.25,1-0.63,1.52-1.14V585.94z
		 M880.71,580.79h-7.37l-6.21,8.34V568l-6.81,0.97v32.09h6.81v-10.77l7.47,10.77h7.78l-8.7-11.6L880.71,580.79z M233.44,498.73
		h25.91v-23.72h-25.91V450h49.45v-26.05h-75.49v126.37h76.16v-26.57h-50.11V498.73z M338.42,550.32h-32.54V423.95h32.54
		c22.88,0,40.8,5.64,53.76,16.91c12.96,11.27,19.44,26.7,19.44,46.28c0,11.74-2.56,22.15-7.69,31.24
		c-5.13,9.09-12.65,16.57-22.57,22.44c-5.64,3.37-11.76,5.8-18.39,7.28C356.35,549.58,348.17,550.32,338.42,550.32z M334.79,523.22
		h6.42c12.79,0,22.8-3.2,30.01-9.59c7.21-6.39,10.82-15.22,10.82-26.49c0-11.27-3.61-20.13-10.82-26.58
		c-7.21-6.45-17.22-9.67-30.01-9.67h-6.42V523.22z M706.64,550.32h14.54h14.71V449.56h38.8v-25.61H667.67v25.61h38.97V550.32z
		 M786.36,550.32h-29.4l62.46-126.37h1.86l43.15,89.24l3.56,7.35c0,0,0,0,0,0l14.39,29.77h-30.6l-6.92-16.37
		c-7.88,2.83-16.37,4.37-25.19,4.37c-9.22,0-18.06-1.68-26.22-4.76L786.36,550.32z M819.07,472.99l-16.66,39.38
		c5.4,1.93,11.21,2.96,17.26,2.96c5.65,0,11.1-0.92,16.21-2.62L819.07,472.99z M574.52,501.75v-77.79h-26.97v126.37h26.97
		l52.16-77.95v77.95h26.96V423.95h-26.96L574.52,501.75z M102.96,483.21l51.79,67.11h36.51l-54.62-70.8l42.87-55.56h-36.53
		l-0.05,0.07l-39.98,51.8V349.17l-31.22,5.24v195.91h31.22V483.21z"/>
</g>
</svg>
